<svg width="30" height="37" viewBox="0 0 30 37" fill="none" xmlns="http://www.w3.org/2000/svg">
<g id="emojione-v1:flag-for-egypt">
<path id="Vector" d="M0 14.4531H30V22.5469H0V14.4531Z" fill="#E6E7E8"/>
<path id="Vector_2" d="M25.3125 5.78125H4.6875C1.58109 5.78125 0 8.62852 0 12.1406V14.4531H30V12.1406C30 8.62852 28.4189 5.78125 25.3125 5.78125Z" fill="#EC1C24"/>
<path id="Vector_3" d="M0 24.8594C0 28.3715 1.58109 31.2188 4.6875 31.2188H25.3125C28.4189 31.2188 30 28.3715 30 24.8594V22.5469H0V24.8594Z" fill="#25333A"/>
<g id="Group">
<path id="Vector_4" fill-rule="evenodd" clip-rule="evenodd" d="M17.1769 16.4232C17.2229 16.9412 17.2219 17.4604 17.2421 17.9807C17.2805 18.9751 17.3105 19.9741 17.3433 20.9714V21.1517C17.0963 20.865 16.8699 20.6048 16.6458 20.3418C16.6397 20.3158 16.6501 20.2978 16.6651 20.2799C16.7058 20.2233 16.6913 20.1562 16.688 20.0949C16.6651 19.6642 16.6585 19.2318 16.6402 18.7993C16.6158 18.175 16.6008 17.5517 16.5708 16.9274C16.5629 16.736 16.613 16.5984 16.7466 16.5025C16.8305 16.4412 16.8868 16.466 16.8896 16.5863C16.8971 16.8204 16.9037 17.054 16.914 17.2881C16.9435 17.9616 16.9604 18.6363 16.9866 19.3092C16.9988 19.622 17.0232 19.9336 17.0152 20.2452C17.0124 20.3389 17.0171 20.4302 17.0288 20.4857C16.9899 20.2903 17.0213 20.0562 17.0063 19.8226C16.9786 19.4254 16.9726 19.0265 16.959 18.6276C16.9388 17.9472 16.9069 17.2696 16.891 16.5892C16.8872 16.3718 16.9243 16.3429 17.0968 16.4192C17.123 16.425 17.1507 16.4042 17.1769 16.4232ZM13.5066 20.4574C13.3121 20.6806 13.1166 20.9031 12.9085 21.139C12.9085 20.9251 12.9029 20.7407 12.9094 20.5528C12.9507 19.3058 12.9952 18.0576 13.0379 16.8083C13.0426 16.6794 13.0543 16.5516 13.0636 16.4227C13.0913 16.4088 13.1105 16.4597 13.1396 16.4337C13.1665 16.4085 13.1978 16.3913 13.231 16.3834C13.3079 16.3672 13.3515 16.4123 13.3515 16.5088C13.3515 16.8054 13.3355 17.0985 13.3238 17.391C13.3158 17.62 13.3022 17.8489 13.2976 18.0778C13.2858 18.5935 13.2619 19.1081 13.2465 19.6209C13.2366 19.9076 13.2319 20.1955 13.2183 20.4799C13.2361 20.2123 13.2361 19.9394 13.2451 19.67C13.2751 18.8028 13.306 17.9356 13.3374 17.0684C13.3421 16.9135 13.3557 16.7568 13.351 16.6002C13.3491 16.5475 13.3557 16.4949 13.4007 16.4735C13.4401 16.4522 13.4705 16.4863 13.5033 16.5088C13.628 16.6002 13.6754 16.7314 13.6693 16.9118C13.6417 17.6463 13.6158 18.3809 13.5915 19.1156C13.5802 19.4457 13.5821 19.7781 13.5507 20.1088C13.5418 20.2238 13.5169 20.3395 13.5066 20.4574Z" fill="#BF9200"/>
<path id="Vector_5" fill-rule="evenodd" clip-rule="evenodd" d="M13.5066 20.4576C13.4747 20.3503 13.4734 20.2329 13.5029 20.1246C13.5188 20.1211 13.5441 20.1737 13.5507 20.1159C13.5544 20.0639 13.5666 20.0153 13.5666 19.9656C13.5666 19.6291 13.5858 19.2932 13.5989 18.9597C13.6177 18.4827 13.6266 18.0046 13.6538 17.5294C13.6636 17.3692 13.6622 17.2074 13.665 17.0478C13.6669 16.9617 13.6636 16.8553 13.748 16.8298C13.8319 16.805 13.8816 16.89 13.9275 16.9663C13.9552 17.0125 13.9571 17.0686 13.9543 17.1253C13.9294 17.5791 13.9243 18.0323 13.906 18.4868C13.89 18.9273 13.8774 19.3672 13.8605 19.8095C13.8849 19.1585 13.9088 18.507 13.9289 17.8549C13.9341 17.6496 13.9468 17.4444 13.9514 17.2363C13.9552 17.0715 13.9908 17.0397 14.1263 17.0553C14.1896 17.064 14.2505 17.079 14.3152 17.0842C14.3447 17.0981 14.3771 17.1114 14.386 17.1553C14.3729 17.2143 14.3302 17.2079 14.296 17.2091C14.2214 17.2155 14.1961 17.2692 14.2168 17.3478C14.2407 17.4317 14.2318 17.5178 14.235 17.6016C14.2318 17.678 14.2304 17.7543 14.2252 17.8306C14.2093 17.9979 14.2013 18.1662 14.2013 18.3347C14.1985 18.64 14.175 18.9469 14.1685 19.2516C14.145 19.3641 14.1394 19.4811 14.1521 19.5962C14.1582 19.6332 14.1671 19.6702 14.1746 19.7072C14.1816 19.7621 14.1633 19.8118 14.1389 19.8546C14.127 19.8707 14.1125 19.8834 14.0962 19.8919C14.0799 19.9004 14.0624 19.9044 14.0447 19.9037C13.9993 19.8951 13.9796 19.9407 13.9538 19.9685L13.5066 20.4576ZM16.6679 20.3211C16.6599 20.3292 16.6524 20.3362 16.6454 20.3449C16.5488 20.2339 16.4504 20.124 16.3552 20.0107C16.3482 19.9858 16.3571 19.9662 16.3683 19.9465C16.3777 19.9251 16.3754 19.9026 16.3754 19.8789C16.3683 19.1978 16.3383 18.5209 16.3107 17.8421C16.3008 17.5953 16.3083 17.3461 16.2863 17.0998C16.2808 17.0574 16.2887 17.0139 16.3083 16.9784C16.3533 16.8998 16.4035 16.8067 16.493 16.8333C16.5764 16.8588 16.5741 16.9657 16.575 17.0513C16.5905 17.804 16.628 18.5567 16.6547 19.3094C16.6641 19.5788 16.6547 19.8517 16.6871 20.1205C16.6941 20.1847 16.7021 20.2576 16.6679 20.3211ZM16.3716 20.7351C16.381 20.8438 16.4171 20.8698 16.5094 20.8374C16.6524 20.7865 16.853 20.9074 16.8239 21.1317C16.8174 21.193 16.83 21.2334 16.8802 21.2623C16.9538 21.3045 16.98 21.4225 17.07 21.4427C17.0832 21.4468 17.0902 21.4797 17.0785 21.4907C16.9941 21.5514 17.0189 21.6977 16.9393 21.763C16.9285 21.7734 16.913 21.7907 16.9116 21.8058C16.906 22.0058 16.786 22.0416 16.6613 22.0746C16.0697 22.2336 15.4702 22.2486 14.8688 22.2336C14.4254 22.2243 13.9829 22.1943 13.5488 22.063C13.4344 22.0307 13.3618 21.9775 13.3224 21.8202C13.2911 21.7109 13.2446 21.6092 13.185 21.5196C13.1504 21.467 13.1597 21.4618 13.1986 21.4225C13.2966 21.3242 13.4311 21.2646 13.4232 21.049C13.4171 20.8946 13.5938 20.7796 13.7321 20.8363C13.8221 20.8727 13.86 20.8455 13.8699 20.7351C13.8999 20.7276 13.9116 20.7536 13.9224 20.7796C13.9383 20.8212 13.9346 20.8634 13.9304 20.9074C13.9247 20.9268 13.9138 20.9431 13.8994 20.9536C13.8558 20.9791 13.8127 20.964 13.771 20.949C13.741 20.9368 13.7039 20.9195 13.6772 20.9588C13.6439 21.0103 13.6946 21.0253 13.7086 21.0577C13.7161 21.0732 13.7194 21.0912 13.718 21.1091C13.711 21.1392 13.6908 21.1548 13.6711 21.1693C13.6032 21.1883 13.5469 21.2259 13.5169 21.3115C13.5033 21.3531 13.4677 21.3756 13.4349 21.4028C13.343 21.482 13.3341 21.5445 13.4025 21.6508C13.4152 21.6722 13.4358 21.693 13.44 21.7185C13.4677 21.8884 13.5746 21.9173 13.6885 21.9451C14.0724 22.0364 14.4624 22.0769 14.8543 22.0798C15.2054 22.0838 15.555 22.0919 15.9052 22.0521C16.1532 22.0237 16.4016 21.9931 16.6435 21.9173C16.7147 21.8954 16.7677 21.8613 16.785 21.7647C16.793 21.7202 16.8193 21.6832 16.8422 21.6468C16.9036 21.5531 16.8999 21.482 16.8235 21.4144C16.7712 21.3774 16.7278 21.3239 16.6979 21.2594C16.6674 21.1849 16.6093 21.1953 16.5511 21.2051C16.3932 21.2381 16.2408 21.2941 16.0838 21.3317C16.0632 21.3282 16.0496 21.3144 16.0379 21.2918C16.027 21.2712 16.0206 21.2476 16.0193 21.2231C16.018 21.1986 16.0218 21.1741 16.0304 21.1519C16.0387 21.1317 16.0524 21.1155 16.0693 21.1062C16.2389 21.1918 16.3838 21.0554 16.5427 21.0317C16.5647 21.0276 16.5769 21.0068 16.5746 20.9819C16.5666 20.9444 16.5422 20.934 16.5122 20.9392C16.4583 20.9467 16.4054 20.9866 16.3482 20.9582C16.3331 20.9478 16.3213 20.9315 16.3144 20.912C16.3056 20.8687 16.3078 20.8231 16.3205 20.7813C16.3304 20.7547 16.3416 20.7281 16.3735 20.7351" fill="#BF9200"/>
<path id="Vector_6" fill-rule="evenodd" clip-rule="evenodd" d="M16.3771 19.9856L16.3546 20.007C16.2862 19.9712 16.2529 19.8717 16.176 19.8492C16.1684 19.8567 16.1594 19.8616 16.1498 19.8635C16.1402 19.8655 16.1303 19.8643 16.1212 19.8602C16.0776 19.8249 16.0621 19.7763 16.0645 19.7151C16.0687 19.6769 16.0818 19.6416 16.0865 19.6018C16.101 19.4904 16.0964 19.3766 16.0729 19.2676C16.0635 18.9346 16.0382 18.6045 16.0373 18.2703C16.0373 18.1599 16.0504 18.0426 15.997 17.9414C15.9783 17.9253 15.9636 17.9031 15.9548 17.8772C15.9745 17.7113 16.0017 17.5471 16.0181 17.3794C16.0312 17.2413 16.0349 17.2343 15.9248 17.2095C15.8962 17.2031 15.8653 17.2031 15.854 17.158C15.8624 17.1118 15.8967 17.1002 15.9271 17.0846C15.997 17.0771 16.0668 17.0597 16.1367 17.0516C16.2426 17.0389 16.282 17.0765 16.2881 17.2083C16.2984 17.4714 16.3054 17.7327 16.3143 17.9946C16.342 18.6438 16.3542 19.2971 16.386 19.9475C16.386 19.9613 16.3804 19.9741 16.3771 19.9856Z" fill="#BF9200"/>
<path id="Vector_7" fill-rule="evenodd" clip-rule="evenodd" d="M16.1329 19.8469C16.1479 19.8469 16.1619 19.8486 16.1765 19.8486L16.2646 20.2868C16.2772 20.3129 16.2758 20.3354 16.2524 20.3522C16.2351 20.3632 16.2116 20.3227 16.1957 20.3632C16.1197 20.5453 16.1488 20.7147 16.2847 20.8436C16.303 20.8592 16.3222 20.8719 16.3307 20.9014C16.339 20.9107 16.3478 20.9194 16.3569 20.9274C16.356 20.9916 16.3124 20.9962 16.281 21.0066C16.199 21.0274 16.1197 21.0598 16.0354 21.0529C16.0058 21.0528 15.9766 21.0605 15.9496 21.0754C15.7818 21.1159 15.6121 21.1136 15.4433 21.106C15.4138 21.1037 15.3791 21.1003 15.3697 21.1488C15.3618 21.1951 15.3922 21.2101 15.4218 21.2205C15.4968 21.2517 15.5751 21.2402 15.651 21.2454C15.6932 21.2483 15.7401 21.2303 15.7729 21.283C15.778 21.3552 15.7316 21.3587 15.6927 21.3668C15.6449 21.3755 15.5964 21.3766 15.5483 21.3703C15.4518 21.3633 15.3636 21.3853 15.2919 21.4743C15.2827 21.488 15.2707 21.4986 15.2572 21.505C15.1813 21.5368 15.1176 21.4315 15.0205 21.5021C14.9629 21.5454 14.8724 21.4148 14.8283 21.3171C14.824 21.2973 14.8233 21.2765 14.8265 21.2564C14.8335 21.2113 14.894 21.1939 14.871 21.1396C14.8461 21.0835 14.7965 21.1113 14.759 21.106C14.676 21.0956 14.5874 21.1523 14.5129 21.0725C14.5086 20.9806 14.5846 20.9927 14.6188 20.9476C14.6395 20.926 14.6653 20.9132 14.6924 20.9112C14.7093 20.9112 14.7238 20.9187 14.7374 20.9315C14.7501 20.9465 14.7636 20.9667 14.7829 20.9644C14.8991 20.95 14.9943 20.9997 15.0815 21.0864C15.103 21.1078 15.1288 21.117 15.1522 21.0922C15.2455 21.0037 15.3491 20.9511 15.4724 20.9621C15.4851 20.9621 15.4954 20.9419 15.5066 20.9303C15.5193 20.9181 15.5343 20.9103 15.5502 20.9078C15.6322 20.9476 15.6904 20.9442 15.7326 20.8222C15.7696 20.7129 15.8188 20.7228 15.9257 20.8407C16.0007 20.7123 16.0002 20.6852 15.9097 20.5216C15.8582 20.5742 15.8586 20.6979 15.7724 20.6967C15.6922 20.6967 15.6749 20.5944 15.628 20.5395C15.5844 20.6008 15.6186 20.7251 15.5207 20.7413C15.4747 20.7043 15.471 20.6493 15.479 20.5909C15.5141 20.4666 15.5085 20.34 15.4982 20.214C15.5016 20.1933 15.5086 20.1738 15.5188 20.1568C15.568 20.0851 15.5563 19.9926 15.5741 19.9099C15.5901 19.8388 15.5882 19.7388 15.6693 19.7301C15.7415 19.7243 15.7733 19.8099 15.8085 19.8735C15.8181 19.89 15.8241 19.9093 15.8258 19.9296C15.8207 19.8735 15.8408 19.8024 15.8727 19.7388C15.9144 19.6567 15.9922 19.6642 16.0494 19.7515C16.0729 19.7879 16.0832 19.8446 16.1329 19.8469Z" fill="#BF9200"/>
<path id="Vector_8" fill-rule="evenodd" clip-rule="evenodd" d="M14.6717 21.009C14.6258 21.0599 14.5616 21.0154 14.5137 21.0593C14.4486 21.1553 14.3722 21.0691 14.3019 21.0778C14.27 21.0703 14.2419 21.05 14.2095 21.0529C14.1242 21.0599 14.0431 21.0275 13.9611 21.0067C13.9287 20.9963 13.8847 20.9922 13.8828 20.9275C13.8921 20.9196 13.9008 20.9109 13.9091 20.9015C13.917 20.872 13.9367 20.8598 13.955 20.8437C14.0895 20.7147 14.1209 20.5453 14.0455 20.365C14.0281 20.3257 14.0056 20.3632 13.9873 20.3528C13.963 20.3361 13.963 20.3135 13.9752 20.2875C13.9855 20.1557 14.0441 20.0378 14.0441 19.9042C14.0497 19.8889 14.0584 19.8756 14.0694 19.8657C14.0804 19.8558 14.0933 19.8495 14.1069 19.8475C14.1406 19.8475 14.1603 19.8215 14.1753 19.7863C14.2034 19.7232 14.2433 19.673 14.3075 19.6828C14.3703 19.6926 14.3802 19.7649 14.3994 19.825C14.4045 19.84 14.4045 19.8603 14.4167 19.873C14.4247 19.8753 14.4289 19.8701 14.4345 19.8614C14.4753 19.8059 14.5044 19.7111 14.5789 19.7325C14.6633 19.7562 14.6548 19.8649 14.6698 19.947C14.682 20.0123 14.6792 20.0846 14.7298 20.1308C14.7419 20.1446 14.7504 20.1625 14.7542 20.1823C14.7336 20.3251 14.7186 20.465 14.773 20.6037C14.7763 20.6569 14.7659 20.702 14.7298 20.7344C14.6178 20.7396 14.66 20.5985 14.6117 20.5413C14.4777 20.7564 14.4566 20.7564 14.3361 20.5292C14.2452 20.6529 14.2423 20.6818 14.3052 20.8379C14.3394 20.8396 14.3502 20.7951 14.3731 20.776C14.4209 20.735 14.4734 20.7321 14.4973 20.7951C14.5316 20.9003 14.6023 20.9512 14.6717 21.009ZM14.8025 15.8851C14.8231 15.7209 14.8592 15.5602 14.8512 15.3931C14.8499 15.3378 14.8376 15.2837 14.8154 15.2356C14.7931 15.1875 14.7617 15.1469 14.7237 15.1173C14.7009 15.1025 14.6755 15.095 14.6497 15.0954C14.6103 15.0902 14.5597 15.2 14.5344 15.0902C14.5238 15.0479 14.5232 15.0028 14.5325 14.9602C14.5419 14.9175 14.5609 14.879 14.5873 14.8491C14.6009 14.8335 14.6211 14.819 14.6366 14.8202C14.8597 14.8393 15.0847 14.7317 15.3073 14.8514C15.4241 14.9161 15.4958 15.0092 15.5037 15.1694C15.5136 15.1971 15.5169 15.2231 15.492 15.2405C15.4564 15.2405 15.4372 15.2092 15.4259 15.1763C15.3866 15.0555 15.3041 15.0462 15.2333 15.0977C15.0889 15.2064 14.9783 15.1353 14.8723 15.0214C14.8286 14.9775 14.7785 14.9443 14.7247 14.9237C14.8222 14.9526 14.9023 15.0364 14.9741 15.1266C15.0256 15.189 15.043 15.2578 14.9806 15.3416C14.9066 15.4393 14.9502 15.5781 14.9197 15.6943C14.8962 15.7804 14.9141 15.892 14.8189 15.9331C14.8006 15.9238 14.7936 15.9088 14.8025 15.8851ZM15.6547 16.4233C15.6767 16.4904 15.7245 16.4782 15.7681 16.4753C15.9711 16.4661 16.1492 16.3667 16.3245 16.2539C16.3442 16.2389 16.3545 16.251 16.362 16.2724C16.3602 16.3487 16.3105 16.3811 16.2664 16.4135C16.1921 16.4657 16.1125 16.5053 16.0297 16.5314C15.9308 16.5667 15.8352 16.6176 15.7409 16.6517C15.612 16.7002 15.4634 16.7956 15.3172 16.6794C15.2783 16.6494 15.2398 16.6418 15.193 16.6771C15.0856 16.7615 15.0219 16.7199 14.9923 16.5569C14.9945 16.5474 14.9983 16.5386 15.0034 16.5311C15.0085 16.5235 15.0148 16.5173 15.0219 16.5129C15.1602 16.5095 15.1639 16.5066 15.162 16.325C15.162 16.2776 15.1555 16.2325 15.1597 16.1869C15.1737 16.099 15.1775 16.01 15.1766 15.9215C15.1761 15.8712 15.1686 15.8203 15.207 15.7851C15.2816 15.7816 15.2736 15.8527 15.2769 15.9088C15.2848 16.0643 15.2736 16.2192 15.3008 16.3742C15.3111 16.4372 15.328 16.4869 15.3959 16.5204C15.3402 16.3357 15.3029 16.1433 15.2848 15.9475C15.2816 15.9059 15.2759 15.866 15.2778 15.8244C15.2792 15.7683 15.2816 15.7007 15.3411 15.7007C15.387 15.6995 15.4081 15.7562 15.4109 15.8099C15.4152 15.8822 15.4311 15.9527 15.4372 16.0261C15.447 16.1499 15.4695 16.2701 15.5112 16.384C15.5295 16.4308 15.5497 16.4967 15.6097 16.4372C15.6233 16.4233 15.6373 16.4152 15.6547 16.4233Z" fill="#BF9200"/>
<path id="Vector_9" fill-rule="evenodd" clip-rule="evenodd" d="M14.8028 15.885C14.8098 15.8983 14.8164 15.911 14.8248 15.9237C14.8722 15.9827 14.8412 16.0451 14.8267 16.1023C14.7929 16.2359 14.7245 16.348 14.6692 16.4706C14.7442 16.4481 14.7737 16.3752 14.7962 16.2989C14.8389 16.1573 14.8801 16.0145 14.8961 15.8607C14.8984 15.8497 14.8961 15.8335 14.9003 15.8225C14.9237 15.763 14.912 15.6583 14.9865 15.667C15.0709 15.6768 15.0334 15.7734 15.0306 15.8347C15.0177 16.0781 14.9598 16.3146 14.8614 16.5261C14.8478 16.5539 14.8337 16.5787 14.8319 16.6128C14.807 16.6412 14.807 16.6764 14.8136 16.714C14.7728 16.7764 14.7292 16.7978 14.695 16.7128C14.6725 16.6562 14.6453 16.6718 14.6115 16.6828C14.5454 16.7042 14.4869 16.6932 14.4423 16.6227C14.4109 16.5752 14.3659 16.5689 14.3204 16.5614C14.2024 16.54 14.0886 16.4911 13.9853 16.4174C13.9365 16.3874 13.8826 16.355 13.8784 16.2723C13.8859 16.2509 13.8962 16.2382 13.9164 16.2538C14.087 16.3642 14.2609 16.4585 14.4592 16.4781C14.5253 16.4827 14.567 16.4614 14.604 16.3891C14.6847 16.2289 14.7465 16.059 14.8028 15.885Z" fill="#BF9200"/>
<path id="Vector_10" fill-rule="evenodd" clip-rule="evenodd" d="M13.9161 16.2511C13.9063 16.2586 13.8974 16.2672 13.8871 16.2771C13.8393 16.3233 13.7961 16.2892 13.7521 16.2649C13.654 16.21 13.5499 16.1734 13.4432 16.1562C13.3161 16.1349 13.2219 16.2089 13.1708 16.3563C13.1521 16.4152 13.1286 16.4754 13.1029 16.5297C13.0513 16.5141 13.0958 16.4459 13.0635 16.4204C13.1113 16.1314 13.2491 16.01 13.4835 16.0499C13.64 16.0765 13.7835 16.1424 13.9161 16.2511ZM16.3532 16.28C16.3445 16.2699 16.3349 16.2612 16.3246 16.2539C16.4699 16.1349 16.6288 16.0661 16.8004 16.0452C17.0014 16.0204 17.1332 16.1562 17.1768 16.4233L17.1547 16.5124C17.098 16.4869 17.0891 16.4158 17.0699 16.3592C17.016 16.2089 16.9189 16.1349 16.7863 16.1603C16.6831 16.1789 16.5826 16.2153 16.4877 16.2684C16.4441 16.2921 16.4005 16.3256 16.3532 16.28ZM15.6547 16.4233C15.6468 16.4339 15.6394 16.4451 15.6327 16.4569C15.5779 16.4557 15.5558 16.4089 15.5408 16.3557C15.4911 16.2084 15.4641 16.051 15.4611 15.8915C15.471 15.8371 15.4841 15.7822 15.5282 15.751C15.5558 15.9788 15.5793 16.2077 15.6547 16.4233Z" fill="#BF9200"/>
<path id="Vector_11" fill-rule="evenodd" clip-rule="evenodd" d="M15.5298 15.754C15.5199 15.8002 15.5335 15.8551 15.5059 15.8991C15.4388 15.8025 15.4229 15.3371 15.4848 15.236C15.4909 15.214 15.4979 15.1943 15.5049 15.1724C15.5509 15.3649 15.5317 15.5586 15.5298 15.7563M13.9754 20.2865C13.9829 20.3044 13.9895 20.3246 13.9946 20.3437C14.0579 20.4495 14.0171 20.5275 13.9515 20.5992C13.914 20.6038 13.9267 20.5576 13.9126 20.5391C13.9299 20.4535 13.9417 20.3645 13.9754 20.2865ZM16.2456 20.3443C16.2517 20.3258 16.2578 20.3055 16.2648 20.287C16.2985 20.3651 16.3107 20.4541 16.3276 20.5403C16.3145 20.5582 16.3276 20.6044 16.2887 20.6004C16.2231 20.5287 16.1823 20.4501 16.2456 20.3443Z" fill="#BF9200"/>
<path id="Vector_12" fill-rule="evenodd" clip-rule="evenodd" d="M13.9132 20.54C13.9217 20.5591 13.9282 20.5793 13.9367 20.6007C13.9803 20.6851 13.976 20.7533 13.8898 20.7903C13.8823 20.7718 13.8771 20.7533 13.8696 20.7343C13.8846 20.6701 13.8987 20.6048 13.9132 20.54ZM16.3057 20.6013C16.3128 20.5799 16.3193 20.5597 16.3278 20.5406C16.3418 20.6048 16.3563 20.6707 16.3718 20.7354C16.3638 20.7539 16.3587 20.7724 16.3512 20.7915C16.2649 20.7533 16.2607 20.6857 16.3057 20.6013ZM14.2437 18.0026C14.216 17.9425 14.2109 17.876 14.2001 17.8107C14.1659 17.7413 14.1968 17.6743 14.2034 17.6055C14.2245 17.7263 14.246 17.8483 14.2662 17.9703C14.2592 17.9812 14.2592 18.0015 14.2437 18.0026ZM14.1518 19.4855C14.1617 19.4572 14.1696 19.4294 14.1785 19.4028C14.1973 19.4144 14.1865 19.4433 14.1973 19.4583C14.1842 19.5439 14.171 19.6335 14.1363 19.7121C14.1293 19.6821 14.1242 19.6509 14.1162 19.6185C14.134 19.5769 14.1101 19.5173 14.1518 19.4855ZM14.5151 17.1349C14.4692 17.1424 14.4246 17.1528 14.3801 17.1626C14.3562 17.1528 14.3318 17.1453 14.3088 17.1366C14.3576 17.1123 14.4096 17.1117 14.4621 17.1088C14.4842 17.1031 14.5104 17.0805 14.5151 17.1349ZM13.7065 21.0962C13.7932 21.1187 13.8823 21.1303 13.9643 21.169C14.0993 21.2297 14.1663 21.1499 14.2142 21.0129C14.2423 21.0083 14.2671 21.0112 14.2896 21.0343C14.3201 21.0638 14.3651 21.0713 14.3754 21.1309C14.3871 21.2072 14.4335 21.2239 14.4888 21.2158C14.5995 21.2343 14.7092 21.2534 14.8221 21.2384C14.8278 21.2396 14.8332 21.2422 14.8381 21.2461C14.8429 21.25 14.847 21.255 14.8503 21.2609V21.3083C14.7245 21.3284 14.5973 21.3288 14.4715 21.3095C14.3543 21.291 14.276 21.3332 14.2282 21.4922C14.1921 21.2442 14.0431 21.2268 13.8945 21.1962C13.8138 21.1817 13.7328 21.1679 13.6587 21.1199C13.6751 21.1129 13.6906 21.1037 13.7065 21.0962ZM16.0268 21.0147C16.0188 21.0719 16.0807 21.0731 16.084 21.1205L16.0624 21.1505C16.039 21.1754 15.9898 21.1731 15.9917 21.2274C15.9959 21.2702 16.0395 21.2615 16.061 21.2841L16.0831 21.3136C16.0606 21.3679 16.0367 21.4217 16.0067 21.4951C15.9663 21.3407 15.8862 21.2864 15.7718 21.3112C15.6893 21.2661 15.604 21.2997 15.5201 21.2898C15.476 21.2852 15.4306 21.2979 15.3912 21.2638C15.4638 21.1736 15.5581 21.2199 15.6415 21.2176C15.7423 21.2124 15.8398 21.2401 15.8862 21.0875C15.8946 21.0609 15.9307 21.0569 15.9513 21.0378C15.972 21.0129 15.9987 21.0089 16.0268 21.0147ZM16.0456 19.4583C16.0354 19.4176 16.0256 19.3767 16.016 19.3358C15.9968 19.3173 15.9753 19.3051 15.9635 19.2774C15.8878 19.062 15.838 18.8341 15.8154 18.601C15.8131 18.5738 15.8178 18.5478 15.8117 18.5195C15.8731 18.3108 15.9593 18.1113 15.9809 17.8864C15.9917 17.8963 16.0038 17.9038 16.0151 17.9136C16.0526 18.0338 16.0353 18.1616 16.0395 18.2865C16.0507 18.6548 16.0526 19.0248 16.0934 19.389C16.0882 19.4248 16.0835 19.4595 16.0456 19.4583ZM15.8623 17.1632C15.7756 17.1643 15.6959 17.132 15.6138 17.1083C15.6171 17.0533 15.6453 17.0759 15.6673 17.0805C15.7554 17.099 15.8454 17.1181 15.9321 17.1343C15.9091 17.1449 15.8858 17.1545 15.8623 17.1632Z" fill="#BF9200"/>
<path id="Vector_13" fill-rule="evenodd" clip-rule="evenodd" d="M16.0642 19.4035C16.0727 19.4301 16.0816 19.459 16.091 19.4862C16.1327 19.518 16.1088 19.5775 16.1261 19.6203C16.1186 19.6515 16.1135 19.6827 16.1069 19.7139C16.0717 19.6336 16.0605 19.5463 16.045 19.459C16.0507 19.4405 16.0582 19.4226 16.0642 19.4035ZM15.5252 19.4885C15.461 19.644 15.3874 19.796 15.4352 19.9822C15.4469 20.0065 15.4342 20.0331 15.4385 20.0579C15.4755 20.2319 15.5153 20.4071 15.5228 20.5898C15.513 20.6394 15.5143 20.6913 15.5266 20.7401C15.5833 20.791 15.6016 20.8523 15.5463 20.9228C15.5395 20.9328 15.5329 20.943 15.5266 20.9534C15.4891 20.9586 15.4567 20.9852 15.4183 20.98C15.3433 20.9685 15.2763 20.9338 15.2697 20.8309C15.2599 20.6881 15.243 20.5447 15.2322 20.4019C15.2331 20.3146 15.2186 20.2296 15.2167 20.1429C15.2083 20.1117 15.2125 20.0764 15.2027 20.0481C15.2058 20.0571 15.2078 20.0667 15.2088 20.0764C15.2088 20.1123 15.2186 20.1441 15.221 20.1811C15.2341 20.3025 15.2186 20.4302 15.2524 20.5499C15.2514 20.6412 15.2683 20.7314 15.265 20.8245C15.2636 20.9471 15.1956 21.0407 15.115 21.0355C15.0391 21.0321 14.9763 20.9407 14.9753 20.8245C14.9739 20.7251 14.9861 20.6239 14.9927 20.525C15.0185 20.4123 15.0105 20.2961 15.0203 20.1811C15.0241 20.1198 15.0461 20.0608 15.041 19.9989C15.0442 20.0562 15.0306 20.1094 15.0208 20.1637C15.026 20.2429 15.0058 20.321 15.0086 20.3996C14.9941 20.5389 14.9814 20.6771 14.9735 20.8182C14.9674 20.9187 14.8966 20.9823 14.8113 20.9806C14.7771 20.9795 14.748 20.9569 14.7147 20.954L14.6946 20.9234C14.6407 20.8528 14.6571 20.7921 14.7138 20.7407C14.7227 20.6933 14.7307 20.6424 14.74 20.595C14.7316 20.4713 14.7274 20.3487 14.7672 20.2302C14.7771 20.1961 14.7672 20.1782 14.7367 20.1793C14.7298 20.1699 14.7233 20.1598 14.7175 20.1493C14.7555 20.0764 14.7935 20.003 14.8319 19.9319C14.8502 19.8786 14.8606 19.8215 14.8624 19.7637C14.8638 19.6654 14.8727 19.5677 14.9036 19.474C14.9164 19.4401 14.9385 19.4128 14.966 19.3971C15.1207 19.5359 15.1207 19.5359 15.2758 19.3942C15.3012 19.4112 15.3221 19.4369 15.3358 19.4682C15.3581 19.538 15.3719 19.6114 15.3766 19.6862C15.3774 19.5815 15.4037 19.4796 15.4521 19.3937C15.4633 19.3772 15.4792 19.3668 15.4966 19.3647C15.5369 19.3728 15.5585 19.4017 15.5603 19.452C15.5552 19.4746 15.5467 19.4925 15.5252 19.4885Z" fill="#BF9200"/>
<path id="Vector_14" fill-rule="evenodd" clip-rule="evenodd" d="M15.5205 20.2106C15.4839 20.1528 15.4478 20.0944 15.4103 20.0366C15.4183 20.0175 15.4263 20.0001 15.4347 19.9822C15.4792 20.0423 15.5125 20.1088 15.542 20.1805L15.5205 20.2106ZM14.9397 16.5262C15.0302 16.4025 15.0302 16.2412 15.0503 16.0897C15.0705 15.9457 15.078 15.8006 15.0906 15.6492C15.138 15.6694 15.1253 15.7041 15.1239 15.7307C15.1108 15.9648 15.0925 16.199 15.0377 16.425C15.0297 16.4603 15.018 16.4944 15.0297 16.532C15.0213 16.5418 15.0152 16.5522 15.0077 16.5603H14.9645C14.9397 16.569 14.9336 16.5551 14.9397 16.5262ZM15.2083 16.2452C15.1764 16.0579 15.1933 15.8706 15.1863 15.6671C15.2477 15.7081 15.2266 15.7532 15.2275 15.7897C15.1891 15.9394 15.2209 16.0943 15.2083 16.2452Z" fill="#BF9200"/>
<path id="Vector_15" fill-rule="evenodd" clip-rule="evenodd" d="M14.9396 16.5261C14.9477 16.538 14.9563 16.5494 14.9654 16.5602C14.9185 16.618 14.8664 16.6631 14.8055 16.6938C14.7764 16.6689 14.7783 16.6429 14.8055 16.618C14.8618 16.6134 14.896 16.5591 14.9396 16.5261ZM14.5149 17.1349C14.4975 17.1262 14.4793 17.1187 14.4619 17.1089C14.5969 17.0615 14.7305 17.0164 14.866 16.9701C14.8889 16.9586 14.896 16.969 14.896 16.9967C14.7738 17.061 14.6459 17.1074 14.5149 17.1349ZM15.4257 17.0343C15.3372 17.0117 15.2547 16.9626 15.1852 16.8915C15.1875 16.8742 15.1993 16.873 15.2096 16.8678L15.4557 17.0037C15.458 17.032 15.4519 17.047 15.4257 17.0343Z" fill="#BF9200"/>
<path id="Vector_16" fill-rule="evenodd" clip-rule="evenodd" d="M14.8962 16.9963C14.8864 16.9871 14.8764 16.9782 14.8662 16.9697L15.0767 16.8379C15.0817 16.8401 15.0863 16.8435 15.0901 16.848C15.094 16.8525 15.0971 16.8579 15.0992 16.8639C15.0411 16.9333 14.9684 16.9662 14.8962 16.9963ZM15.4259 17.0345L15.4559 17.0044C15.5257 17.0298 15.5975 17.0564 15.6668 17.0807C15.6495 17.0911 15.6312 17.0986 15.6134 17.1085C15.5496 17.0911 15.4836 17.0761 15.4259 17.0345Z" fill="#BF9200"/>
<path id="Vector_17" fill-rule="evenodd" clip-rule="evenodd" d="M15.0984 16.8637C15.09 16.8551 15.0844 16.8464 15.0759 16.8377C15.1373 16.7325 15.1669 16.8342 15.2091 16.8678L15.1847 16.8915C15.157 16.8816 15.1359 16.8348 15.0984 16.8637ZM15.4116 19.1184C15.4331 19.0311 15.4378 18.9438 15.4378 18.8525C15.4359 18.331 15.4378 17.8113 15.4359 17.2898C15.4359 17.2384 15.4561 17.18 15.4116 17.1354C15.4055 17.132 15.4031 17.1285 15.4055 17.1233C15.4073 17.1181 15.4092 17.1158 15.4116 17.1158C15.5897 17.1597 15.7631 17.2337 15.9483 17.2337C15.997 17.2349 15.9994 17.2736 15.998 17.3181C15.9745 18.0044 15.7927 18.6108 15.4116 19.1184ZM14.8266 17.1349C14.7736 17.147 14.782 17.2002 14.782 17.2424C14.782 17.8055 14.7844 18.3697 14.7802 18.9328C14.7802 18.9901 14.8125 19.0346 14.8078 19.0901C14.5083 18.69 14.3433 18.2113 14.2702 17.6824C14.2533 17.5609 14.2509 17.4361 14.243 17.3118C14.2378 17.2551 14.2547 17.2303 14.3034 17.2303C14.4759 17.2256 14.6405 17.1615 14.8055 17.11C14.8289 17.0961 14.8312 17.1123 14.8266 17.1349ZM14.1984 19.4584C14.1928 19.4395 14.1866 19.421 14.1797 19.4029C14.2547 18.9404 14.2467 18.4709 14.2453 18.0021L14.2678 17.9703C14.3217 18.1529 14.3766 18.3345 14.4305 18.516C14.4427 18.5449 14.4295 18.5709 14.4328 18.5987C14.4056 18.8322 14.3578 19.0594 14.2809 19.2774C14.2706 19.3052 14.2481 19.3173 14.2298 19.3346C14.2191 19.3763 14.2092 19.419 14.1984 19.4584ZM15.525 19.4884C15.5325 19.4786 15.5381 19.4682 15.5456 19.4584C15.6366 19.4219 15.607 19.3306 15.607 19.2543C15.6052 19.1751 15.5569 19.178 15.5119 19.1739C15.5039 19.1713 15.4969 19.1657 15.4917 19.1578C15.4866 19.1498 15.4836 19.1401 15.4833 19.13C15.6009 18.9363 15.712 18.7334 15.8081 18.5195C15.8175 18.5368 15.8269 18.5559 15.8367 18.5732C15.805 18.7188 15.7839 18.8676 15.7739 19.0178C15.7622 19.2167 15.8358 19.2953 15.9886 19.2595C15.997 19.2832 16.005 19.3092 16.013 19.3358C15.93 19.5046 15.93 19.5046 15.8067 19.3566C15.7805 19.3254 15.7523 19.2947 15.7111 19.2473L15.6605 19.7185L15.525 19.4884Z" fill="#BF9200"/>
<path id="Vector_18" fill-rule="evenodd" clip-rule="evenodd" d="M14.2275 19.3341L14.251 19.2595C14.355 19.3127 14.4174 19.2439 14.4708 19.148C14.4957 19.1092 14.5069 19.0566 14.5454 19.0329C14.5739 19.0266 14.6049 19.0283 14.6274 18.9965C14.6335 18.9909 14.6409 18.9875 14.6485 18.9869C14.6562 18.9863 14.6638 18.9884 14.6705 18.993C14.6935 19.0283 14.7258 19.0543 14.7333 19.104C14.733 19.1165 14.7293 19.1284 14.723 19.1381C14.6902 19.1676 14.6391 19.1688 14.6236 19.2272C14.5974 19.2613 14.5964 19.326 14.5425 19.322C14.5304 19.3035 14.5486 19.226 14.4971 19.2838C14.4573 19.3249 14.42 19.3695 14.3855 19.4174C14.3279 19.5006 14.2838 19.5162 14.2557 19.3896C14.2505 19.3694 14.2379 19.3526 14.2275 19.3341Z" fill="#BF9200"/>
<path id="Vector_19" fill-rule="evenodd" clip-rule="evenodd" d="M14.5547 19.0469C14.5425 19.0932 14.5299 19.1377 14.5191 19.1851C14.4839 19.1683 14.4722 19.1296 14.4699 19.0868C14.4569 18.915 14.4345 18.7444 14.4028 18.5763C14.4108 18.5555 14.4202 18.537 14.4281 18.5156C14.4797 18.6272 14.5327 18.7359 14.5842 18.8474C14.5895 18.8575 14.5924 18.8691 14.5927 18.881C14.5805 18.9209 14.5819 18.9625 14.5828 19.0047C14.5791 19.0244 14.5721 19.0394 14.5547 19.0469ZM14.7174 19.1128C14.7221 19.1076 14.7272 19.1059 14.7324 19.1024C14.8106 19.2007 14.8885 19.2967 14.9649 19.3955C14.9668 19.4283 14.9601 19.461 14.9456 19.4886C14.8885 19.4603 14.8524 19.3759 14.7783 19.3955C14.7638 19.3889 14.7518 19.3759 14.7446 19.3591C14.7586 19.2729 14.6747 19.203 14.7174 19.1128ZM15.4828 19.1302C15.4888 19.1345 15.4939 19.1405 15.4978 19.1475C15.5269 19.2255 15.511 19.3019 15.496 19.3787L15.4744 19.4094C15.4017 19.3863 15.3497 19.4475 15.2939 19.4897C15.2756 19.4603 15.2747 19.4267 15.2733 19.3938C15.3427 19.3065 15.4144 19.2186 15.4828 19.1302ZM14.8289 19.1302C14.9264 19.1602 14.978 19.2492 15.0206 19.3522C14.9428 19.2978 14.8861 19.214 14.8289 19.1302ZM15.1833 16.9998C15.1158 16.9385 15.068 17.0425 15.0061 17.0298C15.0624 16.9917 15.1041 16.8321 15.1833 16.9998ZM15.0422 19.3498C15.1008 19.4273 15.1575 19.3822 15.2138 19.3435C15.1978 19.4042 15.1641 19.4527 15.1158 19.4527C15.0802 19.451 15.0441 19.4088 15.0422 19.3498Z" fill="#BF9200"/>
<path id="Vector_20" fill-rule="evenodd" clip-rule="evenodd" d="M14.5781 18.8931C14.579 18.877 14.5814 18.8631 14.5833 18.848C14.6119 18.8966 14.639 18.9446 14.669 18.9932C14.6611 19.003 14.6535 19.0134 14.6465 19.0244C14.5898 19.029 14.5814 18.9729 14.5659 18.9278C14.5672 18.9151 14.5715 18.903 14.5781 18.8931ZM15.2765 19.2689C15.3028 19.2157 15.3183 19.1446 15.3881 19.1597C15.3567 19.2065 15.3295 19.2585 15.2765 19.2689ZM15.4115 17.1137V17.1339C15.3717 17.1195 15.3234 17.1218 15.3028 17.0593C15.3429 17.0624 15.381 17.0815 15.4115 17.1137ZM14.8265 17.1351C14.82 17.1275 14.8129 17.1189 14.8054 17.1114C14.8383 17.0761 14.8758 17.0593 14.9175 17.0888C14.8936 17.1235 14.8584 17.1264 14.8265 17.1351ZM14.7609 19.347L14.782 19.3776C14.8439 19.4591 14.8486 19.5649 14.8631 19.6655C14.8711 19.7077 14.8678 19.7522 14.8936 19.7892C14.8926 19.8505 14.8584 19.8881 14.8308 19.932C14.805 19.7788 14.7858 19.6239 14.715 19.4886C14.6939 19.4961 14.6845 19.4788 14.6779 19.4557C14.6779 19.3869 14.6967 19.3412 14.7609 19.347Z" fill="#BF9200"/>
<path id="Vector_21" fill-rule="evenodd" clip-rule="evenodd" d="M14.6932 19.4555L14.7157 19.4885C14.6796 19.5544 14.6407 19.6752 14.5929 19.6631C14.5254 19.6428 14.5694 19.5185 14.5512 19.444C14.5418 19.4047 14.5451 19.3619 14.5418 19.322C14.554 19.2757 14.5671 19.2295 14.5793 19.1855C14.6341 19.215 14.629 19.278 14.629 19.3364C14.629 19.3948 14.6421 19.4382 14.6932 19.4555ZM15.9424 21.8409C15.9101 21.849 15.8712 21.8675 15.8655 21.8021C15.8623 21.742 15.8937 21.7079 15.9293 21.6807C15.9944 21.6322 15.986 21.7397 16.0305 21.7651C16.0376 21.6686 16.1248 21.6223 16.099 21.5171C16.0971 21.5108 16.1159 21.4911 16.1285 21.4842C16.1318 21.4819 16.1501 21.4957 16.151 21.5032C16.1562 21.6073 16.2569 21.5969 16.2818 21.6755C16.2874 21.6958 16.3132 21.7033 16.3179 21.6894C16.3643 21.5813 16.4337 21.6264 16.5059 21.6524C16.4937 21.5767 16.4824 21.516 16.4726 21.4558C16.4627 21.3957 16.4463 21.3443 16.3835 21.3755C16.3568 21.3888 16.3371 21.3743 16.3343 21.3448C16.3273 21.3067 16.3596 21.3084 16.3788 21.3015C16.4698 21.2726 16.5082 21.3315 16.526 21.4327C16.5391 21.5246 16.5246 21.6559 16.661 21.5917C16.668 21.5877 16.6882 21.6079 16.6938 21.6218C16.7032 21.6466 16.6793 21.6582 16.6704 21.657C16.5494 21.6478 16.4726 21.8264 16.3418 21.7721C16.3193 21.7646 16.3094 21.7825 16.3019 21.8073C16.2696 21.9045 16.2312 21.9172 16.1613 21.8438C16.0976 21.7779 16.038 21.816 15.9949 21.8923C15.9523 21.9097 15.9687 21.8432 15.9424 21.8409ZM14.5784 21.986C14.6684 21.9472 14.7265 21.9004 14.6763 21.7894C14.6604 21.7536 14.6707 21.7206 14.6993 21.7102C14.7255 21.6981 14.7307 21.7339 14.7401 21.7588C14.7494 21.7842 14.756 21.8154 14.7846 21.805C14.8141 21.7964 14.8038 21.7617 14.8024 21.7362C14.8001 21.705 14.7888 21.6674 14.8202 21.6501C14.8568 21.6316 14.8568 21.683 14.8746 21.7004C14.9285 21.7455 14.9909 21.7172 15.0485 21.7241C15.1001 21.7345 15.1619 21.7172 15.1427 21.8258C15.1915 21.8177 15.1882 21.7669 15.2144 21.749C15.2444 21.7293 15.2829 21.6981 15.3054 21.7293C15.326 21.7594 15.3241 21.8154 15.3241 21.8611C15.3251 21.912 15.2899 21.912 15.2599 21.9137C15.206 21.9149 15.1516 21.9016 15.1155 21.9814C15.0982 22.0184 15.0598 22.016 15.0274 21.9831C14.9135 21.8727 14.8184 21.8686 14.7091 21.9686C14.6777 21.9987 14.6435 22.0056 14.5784 21.986ZM14.4387 21.8848C14.4593 21.7443 14.4794 21.6368 14.4738 21.5252C14.4719 21.4865 14.4827 21.457 14.5104 21.457C14.5573 21.457 14.5352 21.5032 14.5319 21.5281C14.5207 21.642 14.5066 21.7547 14.4912 21.8686C14.4851 21.9074 14.4616 21.9334 14.4316 21.9449C14.4021 21.9553 14.3829 21.9345 14.3651 21.9079C14.2948 21.79 14.1879 21.757 14.0866 21.831C14.0529 21.8559 14.021 21.875 13.9709 21.8536C14.0393 21.8073 14.089 21.7547 14.0571 21.6524C14.051 21.6333 14.0641 21.6021 14.0838 21.5981C14.1077 21.5917 14.1115 21.6218 14.1138 21.6443C14.119 21.6854 14.1237 21.727 14.1654 21.7368C14.1855 21.7414 14.2034 21.7414 14.2169 21.7235C14.2282 21.7062 14.2118 21.6929 14.2034 21.6784C14.141 21.5588 14.2699 21.5934 14.2891 21.5293C14.3046 21.4819 14.3548 21.5281 14.3557 21.5692C14.3576 21.6218 14.4841 21.6755 14.3594 21.7287C14.381 21.7732 14.4035 21.8154 14.4387 21.8848ZM13.6268 21.3142C13.6779 21.2732 13.7351 21.2627 13.7712 21.2865C13.8002 21.3067 13.7646 21.368 13.7557 21.4119C13.7538 21.4206 13.7505 21.4292 13.7501 21.4391C13.743 21.4957 13.6863 21.5767 13.7402 21.6073C13.8204 21.6489 13.7782 21.5252 13.8087 21.4934C13.8218 21.4819 13.8396 21.4778 13.8644 21.4651C13.8621 21.4957 13.863 21.5131 13.8612 21.5304C13.8527 21.579 13.8124 21.6403 13.8855 21.6605C13.954 21.6807 13.9418 21.6264 13.9418 21.5726C13.9423 21.5322 13.9821 21.5275 14.0112 21.5258C14.0135 21.5322 14.0173 21.5368 14.0163 21.5408C13.9685 21.7848 13.9994 21.7611 13.8044 21.7033C13.7505 21.6888 13.6976 21.668 13.6441 21.6478C13.6165 21.6397 13.5771 21.6443 13.5738 21.5957C13.5719 21.5449 13.5996 21.5125 13.638 21.4928C13.6592 21.4866 13.6789 21.4741 13.6952 21.4564C13.7416 21.3905 13.7173 21.3327 13.6268 21.3142ZM15.4521 21.916C15.3621 21.8871 15.3982 21.8073 15.4296 21.7732C15.491 21.7114 15.4919 21.6443 15.4671 21.5668C15.4535 21.5235 15.4685 21.5009 15.4948 21.4957C15.5271 21.4911 15.5215 21.531 15.5243 21.5559C15.5318 21.6252 15.5365 21.6923 15.544 21.7605C15.5463 21.7975 15.5473 21.842 15.5923 21.827C15.6251 21.816 15.6321 21.7883 15.618 21.7524C15.6073 21.7206 15.5941 21.6865 15.6302 21.675C15.679 21.6605 15.6677 21.716 15.6762 21.7466C15.7057 21.8652 15.6598 21.9045 15.5702 21.8975C15.5355 21.9501 15.491 21.9079 15.4521 21.916ZM15.6855 21.986C15.7554 21.9016 15.8046 21.8391 15.7305 21.7542C15.709 21.7322 15.7282 21.6894 15.753 21.6755C15.7793 21.6634 15.7859 21.7004 15.798 21.7229C15.8599 21.8484 15.8355 21.9316 15.6855 21.986ZM14.5877 21.4599C14.6219 21.4824 14.6524 21.494 14.6374 21.5414C14.6098 21.6235 14.6098 21.7108 14.6037 21.7952C14.6018 21.8247 14.6037 21.8692 14.5662 21.86C14.5277 21.8513 14.5469 21.8102 14.5502 21.7825C14.554 21.727 14.5601 21.6738 14.5662 21.62C14.5727 21.5703 14.5784 21.5212 14.5877 21.4599Z" fill="#BF9200"/>
<path id="Vector_22" fill-rule="evenodd" clip-rule="evenodd" d="M15.5674 21.9249C15.5899 21.9353 15.6129 21.9578 15.596 21.9844C15.5674 22.0243 15.5224 21.9919 15.4849 21.9989C15.4606 22.0052 15.4563 21.9665 15.4751 21.9399C15.5027 21.9145 15.5356 21.9214 15.5674 21.9249ZM15.9424 21.841C15.9598 21.8584 15.9752 21.8763 15.994 21.8919C15.9734 21.9503 15.9373 21.9561 15.8913 21.9462C15.9016 21.9029 15.9673 21.9046 15.9424 21.841ZM15.4245 21.5583C15.4193 21.5843 15.4076 21.5901 15.3935 21.5843C15.3851 21.5815 15.3752 21.5664 15.3752 21.5606C15.3762 21.5381 15.3898 21.5288 15.4066 21.5358C15.4141 21.5392 15.4198 21.5502 15.4245 21.5583ZM15.4306 21.6676C15.4216 21.6809 15.4118 21.6965 15.3968 21.6861C15.3837 21.6757 15.3729 21.6618 15.3823 21.6427C15.3898 21.6254 15.4006 21.6121 15.416 21.6254C15.4287 21.6323 15.4381 21.6468 15.4306 21.6676ZM16.6202 21.7572C16.6137 21.7826 16.6001 21.7878 16.5846 21.7861C16.5706 21.7838 16.5532 21.7757 16.5631 21.752C16.5682 21.7399 16.5832 21.7295 16.5954 21.7271C16.6123 21.7248 16.6188 21.7416 16.6202 21.7572ZM13.6737 21.7237C13.6652 21.7445 13.6545 21.7572 13.6381 21.7474C13.6306 21.7416 13.6226 21.726 13.6249 21.7156C13.6282 21.6988 13.6423 21.6884 13.6573 21.6988C13.6652 21.7023 13.6695 21.7162 13.6737 21.7237ZM13.8931 21.8C13.8823 21.8087 13.8748 21.8208 13.8677 21.822C13.8499 21.8266 13.8396 21.8104 13.8452 21.7925C13.8481 21.7832 13.8612 21.7751 13.8696 21.7751C13.8757 21.7757 13.8823 21.7896 13.8931 21.8ZM13.9263 21.038C13.9583 21.0282 13.9918 21.0284 14.0237 21.0386C14.0557 21.0488 14.085 21.0687 14.1091 21.0964C14.0416 21.1097 13.9831 21.0808 13.9263 21.038ZM13.6596 20.9397C13.6894 20.9291 13.721 20.9293 13.7507 20.9403C13.7803 20.9513 13.8068 20.9725 13.827 21.0016C13.7684 21.0149 13.7187 20.9871 13.6596 20.9397ZM16.1323 21.0883C16.1843 21.038 16.2476 21.0265 16.3109 21.023C16.3127 21.0345 16.3165 21.0455 16.3188 21.0571L16.1416 21.1213L16.1323 21.0883ZM16.3999 21.0091C16.4524 20.9415 16.5054 20.9264 16.5813 20.9322C16.5576 20.9609 16.5291 20.9826 16.4977 20.9959C16.4663 21.0092 16.4329 21.0137 16.3999 21.0091ZM14.4706 21.2617H14.8291C14.7118 21.3016 14.5879 21.3016 14.4706 21.2617ZM15.0284 20.1517C15.0222 20.1528 15.0161 20.1542 15.0101 20.1558L15.0387 19.9089C15.0541 20.0176 15.0616 20.087 15.0284 20.1517ZM15.1915 20.0673V19.9413C15.2187 19.9754 15.2074 20.009 15.2121 20.0402C15.2229 20.0691 15.2102 20.072 15.1915 20.0673Z" fill="#BF9200"/>
<path id="Vector_23" fill-rule="evenodd" clip-rule="evenodd" d="M15.1915 20.0672C15.1981 20.0579 15.205 20.0488 15.2121 20.04C15.2202 20.0523 15.2259 20.0668 15.2286 20.0822C15.2313 20.0977 15.2309 20.1138 15.2276 20.1291C15.2213 20.1376 15.2146 20.1455 15.2074 20.1528C15.1891 20.1291 15.1877 20.0978 15.1915 20.0672ZM14.5737 21.1639C14.5077 21.1816 14.4396 21.1833 14.373 21.1691C14.4434 21.1015 14.501 21.0992 14.5737 21.1639ZM14.8132 21.1778C14.7654 21.2055 14.7138 21.2015 14.6595 21.2055C14.6674 21.1518 14.6946 21.1547 14.7195 21.1547C14.748 21.1726 14.786 21.1414 14.8132 21.1778Z" fill="#BF9200"/>
<path id="Vector_24" fill-rule="evenodd" clip-rule="evenodd" d="M14.813 21.1778C14.7806 21.1714 14.7464 21.1778 14.7192 21.1547C14.7567 21.1518 14.7928 21.1489 14.8289 21.1489C14.8388 21.1489 14.851 21.161 14.8336 21.1726C14.8285 21.1778 14.82 21.1749 14.813 21.1778ZM15.8513 21.1552C15.7926 21.1812 15.729 21.1855 15.6685 21.1674C15.7336 21.0911 15.7913 21.1211 15.8513 21.1552ZM15.525 21.1547C15.5475 21.1489 15.5663 21.1604 15.593 21.194C15.5384 21.2096 15.4812 21.204 15.4294 21.1778C15.4571 21.1414 15.4946 21.1726 15.525 21.1547Z" fill="#BF9200"/>
<path id="Vector_25" fill-rule="evenodd" clip-rule="evenodd" d="M15.5252 21.1546C15.4956 21.1778 15.4619 21.1714 15.4295 21.1778C15.4202 21.1714 15.3794 21.1749 15.4113 21.1546C15.4399 21.1332 15.4853 21.1517 15.5252 21.1546ZM14.5783 18.9115C14.5539 18.9341 14.5642 18.9676 14.5558 18.9953C14.5399 18.9583 14.5291 18.9196 14.5441 18.8814C14.5502 18.8629 14.5675 18.8838 14.5783 18.893V18.9115ZM14.2966 21.6102C14.306 21.6229 14.3158 21.6304 14.3177 21.6408C14.3275 21.6692 14.3078 21.6692 14.2947 21.6668C14.2872 21.6668 14.2755 21.6512 14.2764 21.6431C14.2774 21.6327 14.2872 21.6229 14.2966 21.6102Z" fill="#BF9200"/>
</g>
</g>
</svg>
