<svg width="45" height="46" viewBox="0 0 45 46" fill="none" xmlns="http://www.w3.org/2000/svg">
<path id="Vector" d="M8.00239 18.0714V16.4643C8.00239 12.6281 9.5263 8.94907 12.2389 6.23649C14.9515 3.52391 18.6305 2 22.4667 2C26.3028 2 29.9819 3.52391 32.6945 6.23649C35.407 8.94907 36.931 12.6281 36.931 16.4643V18.0714M16.0381 27.7143V34.1429M28.8952 27.7143V34.1429M42.9095 21.6714C42.9645 21.2228 42.9241 20.7676 42.7912 20.3356C42.6583 19.9036 42.4357 19.5045 42.1381 19.1643C41.8369 18.8214 41.4661 18.5466 41.0505 18.3582C40.6348 18.1698 40.1838 18.072 39.7274 18.0714H5.20596C4.74958 18.072 4.29856 18.1698 3.88289 18.3582C3.46723 18.5466 3.09646 18.8214 2.79525 19.1643C2.49761 19.5045 2.27507 19.9036 2.14214 20.3356C2.00921 20.7676 1.9689 21.2228 2.02382 21.6714L4.43453 40.9571C4.52928 41.7411 4.90932 42.4628 5.50215 42.9845C6.09499 43.5062 6.85914 43.7914 7.64882 43.7857H37.3488C38.1385 43.7914 38.9026 43.5062 39.4955 42.9845C40.0883 42.4628 40.4684 41.7411 40.5631 40.9571L42.9095 21.6714Z" stroke="#4F8F98" stroke-width="3" stroke-linecap="round" stroke-linejoin="round"/>
</svg>
