<svg width="30" height="37" viewBox="0 0 30 37" fill="none" xmlns="http://www.w3.org/2000/svg">
<g id="emojione-v1:flag-for-united-kingdom" clip-path="url(#clip0_44_61)">
<path id="Vector" d="M17.8126 31.2188H25.3126C26.2393 31.2188 27.0268 30.9609 27.6807 30.5117L17.8126 23.2516V31.2188ZM29.8407 26.7152C29.9476 26.1272 30.0019 25.5046 30.0019 24.8588V21.9682H23.3879L29.8388 26.7152M0.164118 10.2669C0.0530261 10.882 -0.00200268 11.5105 5.5668e-05 12.1406V15.0312H6.63943L0.164118 10.2669ZM12.1876 5.78125H4.68756C3.7674 5.78125 2.98506 6.03563 2.33396 6.47847L12.1876 13.7282V5.78125ZM2.36396 30.54C3.00896 30.9702 3.78099 31.2188 4.68756 31.2188H12.1876V23.3123L2.36396 30.54ZM5.5668e-05 21.9688V24.8594C5.5668e-05 25.5248 0.0572432 26.1659 0.170212 26.7689L6.69474 21.9688H5.5668e-05ZM27.7102 6.5068C27.0511 6.04545 26.2529 5.78125 25.3126 5.78125H17.8126V13.7889L27.7102 6.5068ZM30.0001 15.0312V12.1406C30.0001 11.5082 29.9471 10.8982 29.8444 10.3213L23.4432 15.0312H30.0001Z" fill="#2E3192"/>
<path id="Vector_2" d="M23.4431 15.0312L29.8444 10.3213C29.5509 8.66552 28.8366 7.29478 27.7102 6.5068L17.8125 13.7889V5.78125H16.875V16.1875H30V15.0312H23.4431ZM0 20.8125V21.9688H6.69469L0.170156 26.7689C0.48 28.4195 1.21594 29.7746 2.36391 30.54L12.1875 23.3123V31.2188H13.125V20.8125H0ZM30 20.8125H16.875V31.2188H17.8125V23.2516L27.6806 30.5123C28.8155 29.733 29.5387 28.3698 29.8387 26.7163L23.3878 21.9688H30V20.8125ZM12.1875 5.78125V13.7282L2.33391 6.47847C1.19484 7.25316 0.466875 8.61406 0.163594 10.2669L6.63937 15.0312H0V16.1875H13.125V5.78125H12.1875Z" fill="#E6E7E8"/>
<path id="Vector_3" d="M16.875 16.1875V5.78125H13.125V16.1875H0V20.8125H13.125V31.2188H16.875V20.8125H30V16.1875H16.875Z" fill="#BE1E2D"/>
<path id="Vector_4" d="M10.2834 15.0313L0.885 8.1117C0.682969 8.4817 0.520781 8.8887 0.386719 9.32229L8.14312 15.0313H10.282M29.5734 27.8021L21.6923 21.9688H19.5098L29.0316 29.0329C29.2524 28.6523 29.4344 28.2397 29.5734 27.8044M28.462 7.16357L17.798 15.0313L19.9631 15.033L29.1652 8.23831C28.9598 7.77754 28.7433 7.48039 28.462 7.16357ZM0.849844 28.834C1.0607 29.2301 1.31446 29.5888 1.60406 29.9001L12.217 21.9688H10.0781L0.849844 28.834Z" fill="#BE1E2D"/>
</g>
<defs>
<clipPath id="clip0_44_61">
<rect width="30" height="37" fill="white"/>
</clipPath>
</defs>
</svg>
