<svg width="38" height="35" viewBox="0 0 38 35" fill="none" xmlns="http://www.w3.org/2000/svg">
<path id="Vector" d="M18.9375 29.1562L18.75 29.3438L18.5438 29.1562C9.6375 21.075 3.75 15.7312 3.75 10.3125C3.75 6.5625 6.5625 3.75 10.3125 3.75C13.2 3.75 16.0125 5.625 17.0062 8.175H20.4938C21.4875 5.625 24.3 3.75 27.1875 3.75C30.9375 3.75 33.75 6.5625 33.75 10.3125C33.75 15.7312 27.8625 21.075 18.9375 29.1562ZM27.1875 0C23.925 0 20.7938 1.51875 18.75 3.9C16.7062 1.51875 13.575 0 10.3125 0C4.5375 0 0 4.51875 0 10.3125C0 17.3813 6.375 23.175 16.0312 31.9313L18.75 34.4062L21.4688 31.9313C31.125 23.175 37.5 17.3813 37.5 10.3125C37.5 4.51875 32.9625 0 27.1875 0Z" fill="#4F8F98"/>
</svg>
