<svg width="40" height="40" viewBox="0 0 40 40" fill="none" xmlns="http://www.w3.org/2000/svg">
<path id="Vector" d="M39.8857 19.1615L35.6 6.51962C35.4906 6.19319 35.3077 5.91467 35.074 5.71877C34.8403 5.52287 34.5661 5.41826 34.2857 5.41797H30V1.80599C30 1.32701 29.8495 0.867651 29.5816 0.528962C29.3137 0.190274 28.9503 0 28.5714 0H1.42857C1.04969 0 0.686328 0.190274 0.418419 0.528962C0.15051 0.867651 0 1.32701 0 1.80599V32.5078C0 32.9868 0.15051 33.4461 0.418419 33.7848C0.686328 34.1235 1.04969 34.3138 1.42857 34.3138H4.48571C4.81469 35.8441 5.53286 37.1951 6.52942 38.1583C7.52599 39.1214 8.74557 39.6433 10 39.6433C11.2544 39.6433 12.474 39.1214 13.4706 38.1583C14.4671 37.1951 15.1853 35.8441 15.5143 34.3138H24.4857C24.8147 35.8441 25.5329 37.1951 26.5294 38.1583C27.526 39.1214 28.7456 39.6433 30 39.6433C31.2544 39.6433 32.474 39.1214 33.4706 38.1583C34.4671 37.1951 35.1853 35.8441 35.5143 34.3138H38.5714C38.9503 34.3138 39.3137 34.1235 39.5816 33.7848C39.8495 33.4461 40 32.9868 40 32.5078V19.8659C39.9996 19.6238 39.9608 19.3843 39.8857 19.1615ZM30 9.02994H33.3429L36.4 18.0599H30V9.02994ZM10 36.1198C9.43491 36.1198 8.88251 35.9079 8.41266 35.511C7.9428 35.1142 7.57659 34.55 7.36034 33.89C7.14409 33.23 7.08751 32.5038 7.19776 31.8031C7.308 31.1025 7.58012 30.4589 7.97969 29.9537C8.37927 29.4486 8.88837 29.1046 9.4426 28.9652C9.99683 28.8259 10.5713 28.8974 11.0934 29.1708C11.6155 29.4441 12.0617 29.9071 12.3756 30.5011C12.6896 31.0951 12.8571 31.7934 12.8571 32.5078C12.8571 33.4658 12.5561 34.3845 12.0203 35.0619C11.4845 35.7392 10.7578 36.1198 10 36.1198ZM24.4857 30.7018H15.5143C15.1853 29.1715 14.4671 27.8205 13.4706 26.8573C12.474 25.8942 11.2544 25.3723 10 25.3723C8.74557 25.3723 7.52599 25.8942 6.52942 26.8573C5.53286 27.8205 4.81469 29.1715 4.48571 30.7018H2.85714V3.61198H27.1429V26.2952C26.4923 26.7725 25.9228 27.4074 25.4668 28.1636C25.0108 28.9198 24.6774 29.7824 24.4857 30.7018ZM30 36.1198C29.4349 36.1198 28.8825 35.9079 28.4127 35.511C27.9428 35.1142 27.5766 34.55 27.3603 33.89C27.1441 33.23 27.0875 32.5038 27.1978 31.8031C27.308 31.1025 27.5801 30.4589 27.9797 29.9537C28.3793 29.4486 28.8884 29.1046 29.4426 28.9652C29.9968 28.8259 30.5713 28.8974 31.0934 29.1708C31.6155 29.4441 32.0617 29.9071 32.3756 30.5011C32.6896 31.0951 32.8571 31.7934 32.8571 32.5078C32.8571 33.4658 32.5561 34.3845 32.0203 35.0619C31.4845 35.7392 30.7578 36.1198 30 36.1198ZM37.1429 30.7018H35.5143C35.1984 29.155 34.4858 27.7842 33.4881 26.8039C32.4903 25.8236 31.2637 25.289 30 25.2838V21.6719H37.1429V30.7018Z" fill="#37646A"/>
</svg>
