<svg width="45" height="45" viewBox="0 0 45 45" fill="none" xmlns="http://www.w3.org/2000/svg">
<g id="mi:user">
<path id="Vector" d="M22.5 7.5C20.5109 7.5 18.6032 8.29018 17.1967 9.6967C15.7902 11.1032 15 13.0109 15 15C15 16.9891 15.7902 18.8968 17.1967 20.3033C18.6032 21.7098 20.5109 22.5 22.5 22.5C24.4891 22.5 26.3968 21.7098 27.8033 20.3033C29.2098 18.8968 30 16.9891 30 15C30 13.0109 29.2098 11.1032 27.8033 9.6967C26.3968 8.29018 24.4891 7.5 22.5 7.5ZM11.25 15C11.25 12.0163 12.4353 9.15483 14.545 7.04505C16.6548 4.93526 19.5163 3.75 22.5 3.75C25.4837 3.75 28.3452 4.93526 30.455 7.04505C32.5647 9.15483 33.75 12.0163 33.75 15C33.75 17.9837 32.5647 20.8452 30.455 22.955C28.3452 25.0647 25.4837 26.25 22.5 26.25C19.5163 26.25 16.6548 25.0647 14.545 22.955C12.4353 20.8452 11.25 17.9837 11.25 15ZM15 33.75C13.5082 33.75 12.0774 34.3426 11.0225 35.3975C9.96763 36.4524 9.375 37.8832 9.375 39.375C9.375 39.8723 9.17746 40.3492 8.82582 40.7008C8.47419 41.0525 7.99728 41.25 7.5 41.25C7.00272 41.25 6.52581 41.0525 6.17417 40.7008C5.82254 40.3492 5.625 39.8723 5.625 39.375C5.625 36.8886 6.61272 34.504 8.37087 32.7459C10.129 30.9877 12.5136 30 15 30H30C32.4864 30 34.871 30.9877 36.6291 32.7459C38.3873 34.504 39.375 36.8886 39.375 39.375C39.375 39.8723 39.1775 40.3492 38.8258 40.7008C38.4742 41.0525 37.9973 41.25 37.5 41.25C37.0027 41.25 36.5258 41.0525 36.1742 40.7008C35.8225 40.3492 35.625 39.8723 35.625 39.375C35.625 37.8832 35.0324 36.4524 33.9775 35.3975C32.9226 34.3426 31.4918 33.75 30 33.75H15Z" fill="#4F8F98"/>
</g>
</svg>
